<svg xmlns="http://www.w3.org/2000/svg" width="1050" height="430" viewBox="0 0 1050 430">
<rect width="100%" height="100%" fill="#ffffff"/>
<style>
text { font-family: Arial, sans-serif; fill: #1f2933; }
.title { font-size: 20px; font-weight: 700; }
.axis { font-size: 12px; fill: #52616b; }
.label { font-size: 12px; }
.value { font-size: 12px; font-weight: 700; }
.grid { stroke: #e6e8eb; stroke-width: 1; }
</style>
<text x="90" y="35" class="title">Daily Market-Level Net PnL</text>
<line x1="90" x2="1005" y1="355.0" y2="355.0" class="grid"/>
<text x="80" y="359.0" text-anchor="end" class="axis">-426,362</text>
<line x1="90" x2="1005" y1="282.5" y2="282.5" class="grid"/>
<text x="80" y="286.5" text-anchor="end" class="axis">-165,929</text>
<line x1="90" x2="1005" y1="210.0" y2="210.0" class="grid"/>
<text x="80" y="214.0" text-anchor="end" class="axis">94,505</text>
<line x1="90" x2="1005" y1="137.5" y2="137.5" class="grid"/>
<text x="80" y="141.5" text-anchor="end" class="axis">354,939</text>
<line x1="90" x2="1005" y1="65.0" y2="65.0" class="grid"/>
<text x="80" y="69.0" text-anchor="end" class="axis">615,372</text>
<polyline points="90.0,236.3 362.9,236.3 374.1,236.4 375.4,236.3 376.6,236.3 377.9,236.2 379.1,236.3 380.4,236.0 381.6,236.3 382.9,236.2 384.2,236.3 385.4,236.3 386.7,236.1 387.9,236.4 390.4,236.5 391.7,236.6 392.9,236.2 394.2,236.3 396.7,236.4 397.9,236.1 399.2,236.1 400.4,236.3 401.7,236.4 402.9,236.3 404.2,236.6 405.4,236.5 406.7,236.6 407.9,236.9 409.2,236.4 410.4,236.9 414.2,236.3 415.4,237.0 416.7,236.1 417.9,236.3 419.2,236.4 420.5,236.4 421.7,236.2 423.0,235.9 424.2,236.4 425.5,237.2 426.7,237.2 428.0,236.3 430.5,237.0 431.7,236.2 433.0,236.4 434.2,237.0 435.5,236.3 436.7,236.2 438.0,236.3 439.2,236.3 440.5,236.4 441.7,236.6 443.0,236.2 444.2,236.1 448.0,236.0 449.2,236.1 450.5,236.2 451.7,235.2 453.0,235.8 454.2,234.8 455.5,235.8 456.8,236.2 458.0,235.1 459.3,235.4 460.5,235.8 461.8,235.2 463.0,235.9 465.5,236.3 466.8,235.1 468.0,236.1 469.3,235.6 470.5,233.6 471.8,234.0 473.0,236.2 474.3,234.0 475.5,228.6 476.8,230.8 478.0,234.4 480.5,235.1 481.8,233.5 483.0,235.6 484.3,235.3 485.5,235.5 486.8,236.3 488.0,235.3 489.3,234.6 490.5,236.2 491.8,236.2 493.1,235.9 494.3,236.1 495.6,234.5 496.8,235.7 500.6,235.9 501.8,236.0 503.1,235.4 504.3,236.3 505.6,236.2 506.8,236.1 508.1,236.0 509.3,236.1 510.6,235.6 511.8,236.1 513.1,236.3 514.3,236.3 515.6,233.4 516.8,236.2 518.1,236.3 519.3,236.0 520.6,236.3 521.8,234.9 523.1,236.2 524.3,236.5 525.6,234.5 526.8,246.4 528.1,235.3 529.4,235.6 530.6,235.6 533.1,235.8 534.4,236.3 536.9,236.3 538.1,236.0 539.4,236.2 540.6,236.4 541.9,236.3 543.1,235.1 544.4,236.3 545.6,236.2 546.9,236.3 548.1,236.3 550.6,234.9 551.9,236.3 553.1,236.3 554.4,236.1 555.6,236.1 556.9,236.3 558.1,236.0 559.4,235.7 560.6,236.2 561.9,236.3 563.1,235.7 564.4,236.0 565.6,236.1 566.9,236.3 569.4,235.3 570.7,236.3 571.9,236.3 573.2,234.4 574.4,236.3 575.7,236.2 576.9,236.1 578.2,236.3 579.4,236.1 580.7,236.0 583.2,236.2 584.4,236.3 585.7,236.3 586.9,236.3 588.2,236.3 589.4,236.2 590.7,236.3 591.9,236.3 593.2,236.2 594.4,233.9 595.7,236.3 596.9,236.3 598.2,236.3 599.4,235.1 600.7,242.4 601.9,234.5 603.2,233.5 604.5,235.4 605.7,236.3 607.0,233.4 608.2,236.2 609.5,235.0 610.7,220.3 612.0,236.1 613.2,236.1 614.5,236.3 615.7,236.3 617.0,235.0 618.2,235.2 619.5,236.3 622.0,234.7 623.2,236.3 624.5,235.0 625.7,235.6 627.0,236.0 628.2,236.3 629.5,236.3 630.7,236.4 632.0,236.3 633.2,236.3 634.5,236.1 635.7,233.0 637.0,235.8 638.2,235.9 639.5,235.5 640.8,236.3 642.0,236.3 643.3,236.3 644.5,235.8 645.8,235.3 647.0,235.7 648.3,235.7 649.5,237.2 650.8,235.9 652.0,211.3 653.3,236.1 654.5,236.1 655.8,235.6 657.0,234.6 658.3,236.1 659.5,236.2 660.8,236.3 662.0,236.1 663.3,236.3 664.5,236.1 665.8,236.2 667.0,270.6 668.3,240.0 669.5,236.3 670.8,236.3 672.0,236.3 673.3,231.3 674.5,236.3 675.8,236.1 677.1,236.1 678.3,236.3 679.6,235.7 680.8,236.3 682.1,236.1 683.3,236.4 684.6,236.2 685.8,236.2 687.1,236.3 688.3,236.1 690.8,236.0 692.1,236.3 693.3,236.3 694.6,236.3 695.8,236.3 697.1,235.9 698.3,236.3 699.6,236.2 700.8,236.3 702.1,236.3 703.3,236.3 705.8,236.0 707.1,236.3 708.3,236.6 710.8,236.3 712.1,236.3 713.4,236.4 714.6,236.3 718.4,236.3 723.4,236.6 724.6,236.3 725.9,233.7 727.1,226.3 728.4,236.3 729.6,236.2 730.9,236.3 732.1,236.3 733.4,236.2 734.6,236.3 735.9,236.3 738.4,235.6 739.6,236.3 740.9,236.3 742.1,236.3 743.4,236.3 744.6,234.8 745.9,236.3 747.1,236.3 748.4,234.8 749.7,236.2 750.9,236.3 752.2,233.9 753.4,236.2 754.7,236.3 755.9,235.8 757.2,236.0 758.4,236.3 759.7,236.3 760.9,236.2 762.2,236.3 763.4,236.2 764.7,235.7 765.9,236.3 767.2,236.3 769.7,232.7 772.2,236.1 773.4,236.3 774.7,236.1 775.9,236.3 777.2,236.1 778.4,236.0 779.7,236.3 780.9,236.3 782.2,235.6 783.4,236.1 784.7,235.5 786.0,235.1 787.2,236.4 788.5,236.3 789.7,236.1 791.0,234.5 792.2,235.5 793.5,234.2 794.7,235.1 796.0,235.3 797.2,235.6 798.5,236.1 799.7,235.2 801.0,235.5 802.2,235.3 803.5,235.9 804.7,241.5 806.0,235.5 807.2,236.1 808.5,234.8 809.7,236.1 811.0,237.2 812.2,271.8 813.5,187.1 814.7,226.1 816.0,225.0 817.2,231.2 818.5,229.8 819.7,154.8 821.0,216.5 822.3,262.3 823.5,212.4 824.8,231.9 826.0,234.6 827.3,225.5 828.5,147.6 829.8,69.7 831.0,227.5 832.3,189.7 833.5,209.2 834.8,190.0 836.0,175.4 837.3,232.7 838.5,219.1 839.8,165.7 841.0,194.7 842.3,138.4 843.5,244.8 844.8,232.3 846.0,236.1 847.3,219.7 848.5,235.6 849.8,236.1 851.0,235.5 852.3,233.9 853.5,234.9 854.8,239.0 856.0,233.9 857.3,234.7 858.5,235.7 859.8,235.5 861.1,234.7 862.3,231.9 863.6,200.3 864.8,223.3 866.1,239.7 867.3,235.8 868.6,234.9 869.8,233.9 871.1,231.9 872.3,232.3 873.6,230.8 874.8,234.5 876.1,236.4 877.3,212.4 878.6,212.6 879.8,233.3 881.1,230.7 882.3,208.4 883.6,233.5 884.8,239.3 886.1,225.1 887.3,224.9 888.6,231.3 889.8,230.0 891.1,230.1 892.3,226.5 893.6,227.4 894.8,191.3 896.1,140.0 897.4,121.3 898.6,220.9 899.9,227.1 901.1,230.3 902.4,236.2 903.6,194.5 904.9,218.7 906.1,238.1 907.4,231.1 908.6,228.8 909.9,177.0 911.1,223.9 912.4,235.7 913.6,235.9 914.9,211.1 916.1,232.3 917.4,223.8 918.6,203.2 919.9,229.5 921.1,233.4 922.4,226.2 923.6,180.2 924.9,218.9 926.1,246.6 927.4,173.7 928.6,233.4 929.9,218.2 931.1,65.0 932.4,186.2 933.7,162.0 934.9,232.2 936.2,195.9 937.4,229.5 938.7,231.5 939.9,240.1 941.2,258.4 942.4,157.1 943.7,232.6 944.9,217.5 946.2,214.6 947.4,239.2 948.7,229.2 949.9,216.4 951.2,228.3 952.4,233.5 953.7,234.5 954.9,232.9 956.2,232.6 957.4,206.4 958.7,227.8 959.9,232.4 961.2,220.1 962.4,230.5 963.7,233.2 964.9,232.1 966.2,234.5 967.4,237.0 968.7,180.3 970.0,237.3 971.2,243.6 972.5,226.4 973.7,223.4 975.0,227.5 976.2,227.2 977.5,226.0 978.7,194.2 980.0,201.7 981.2,125.3 982.5,223.5 983.7,224.2 985.0,216.7 986.2,221.7 987.5,234.9 988.7,236.2 990.0,218.1 991.2,229.9 992.5,228.5 993.7,221.6 995.0,355.0 996.2,224.2 997.5,232.4 998.7,238.2 1000.0,235.6 1001.2,227.7 1002.5,202.7 1003.7,233.2 1005.0,221.9" fill="none" stroke="#334e68" stroke-width="2"/>
<circle cx="90.0" cy="236.3" r="4" fill="#26875f"/>
<circle cx="362.9" cy="236.3" r="4" fill="#26875f"/>
<circle cx="374.1" cy="236.4" r="4" fill="#26875f"/>
<circle cx="375.4" cy="236.3" r="4" fill="#26875f"/>
<circle cx="376.6" cy="236.3" r="4" fill="#26875f"/>
<circle cx="377.9" cy="236.2" r="4" fill="#26875f"/>
<circle cx="379.1" cy="236.3" r="4" fill="#26875f"/>
<circle cx="380.4" cy="236.0" r="4" fill="#26875f"/>
<circle cx="381.6" cy="236.3" r="4" fill="#26875f"/>
<circle cx="382.9" cy="236.2" r="4" fill="#26875f"/>
<circle cx="384.2" cy="236.3" r="4" fill="#26875f"/>
<circle cx="385.4" cy="236.3" r="4" fill="#26875f"/>
<circle cx="386.7" cy="236.1" r="4" fill="#26875f"/>
<circle cx="387.9" cy="236.4" r="4" fill="#26875f"/>
<circle cx="390.4" cy="236.5" r="4" fill="#26875f"/>
<circle cx="391.7" cy="236.6" r="4" fill="#26875f"/>
<circle cx="392.9" cy="236.2" r="4" fill="#26875f"/>
<circle cx="394.2" cy="236.3" r="4" fill="#26875f"/>
<circle cx="396.7" cy="236.4" r="4" fill="#26875f"/>
<circle cx="397.9" cy="236.1" r="4" fill="#26875f"/>
<circle cx="399.2" cy="236.1" r="4" fill="#26875f"/>
<circle cx="400.4" cy="236.3" r="4" fill="#26875f"/>
<circle cx="401.7" cy="236.4" r="4" fill="#26875f"/>
<circle cx="402.9" cy="236.3" r="4" fill="#26875f"/>
<circle cx="404.2" cy="236.6" r="4" fill="#26875f"/>
<circle cx="405.4" cy="236.5" r="4" fill="#26875f"/>
<circle cx="406.7" cy="236.6" r="4" fill="#26875f"/>
<circle cx="407.9" cy="236.9" r="4" fill="#26875f"/>
<circle cx="409.2" cy="236.4" r="4" fill="#26875f"/>
<circle cx="410.4" cy="236.9" r="4" fill="#26875f"/>
<circle cx="414.2" cy="236.3" r="4" fill="#6d6f73"/>
<circle cx="415.4" cy="237.0" r="4" fill="#26875f"/>
<circle cx="416.7" cy="236.1" r="4" fill="#26875f"/>
<circle cx="417.9" cy="236.3" r="4" fill="#26875f"/>
<circle cx="419.2" cy="236.4" r="4" fill="#6d6f73"/>
<circle cx="420.5" cy="236.4" r="4" fill="#6d6f73"/>
<circle cx="421.7" cy="236.2" r="4" fill="#26875f"/>
<circle cx="423.0" cy="235.9" r="4" fill="#26875f"/>
<circle cx="424.2" cy="236.4" r="4" fill="#6d6f73"/>
<circle cx="425.5" cy="237.2" r="4" fill="#6d6f73"/>
<circle cx="426.7" cy="237.2" r="4" fill="#6d6f73"/>
<circle cx="428.0" cy="236.3" r="4" fill="#6d6f73"/>
<circle cx="430.5" cy="237.0" r="4" fill="#6d6f73"/>
<circle cx="431.7" cy="236.2" r="4" fill="#26875f"/>
<circle cx="433.0" cy="236.4" r="4" fill="#26875f"/>
<circle cx="434.2" cy="237.0" r="4" fill="#26875f"/>
<circle cx="435.5" cy="236.3" r="4" fill="#26875f"/>
<circle cx="436.7" cy="236.2" r="4" fill="#26875f"/>
<circle cx="438.0" cy="236.3" r="4" fill="#26875f"/>
<circle cx="439.2" cy="236.3" r="4" fill="#26875f"/>
<circle cx="440.5" cy="236.4" r="4" fill="#26875f"/>
<circle cx="441.7" cy="236.6" r="4" fill="#26875f"/>
<circle cx="443.0" cy="236.2" r="4" fill="#26875f"/>
<circle cx="444.2" cy="236.1" r="4" fill="#26875f"/>
<circle cx="448.0" cy="236.0" r="4" fill="#26875f"/>
<circle cx="449.2" cy="236.1" r="4" fill="#26875f"/>
<circle cx="450.5" cy="236.2" r="4" fill="#26875f"/>
<circle cx="451.7" cy="235.2" r="4" fill="#26875f"/>
<circle cx="453.0" cy="235.8" r="4" fill="#26875f"/>
<circle cx="454.2" cy="234.8" r="4" fill="#26875f"/>
<circle cx="455.5" cy="235.8" r="4" fill="#26875f"/>
<circle cx="456.8" cy="236.2" r="4" fill="#26875f"/>
<circle cx="458.0" cy="235.1" r="4" fill="#26875f"/>
<circle cx="459.3" cy="235.4" r="4" fill="#26875f"/>
<circle cx="460.5" cy="235.8" r="4" fill="#26875f"/>
<circle cx="461.8" cy="235.2" r="4" fill="#26875f"/>
<circle cx="463.0" cy="235.9" r="4" fill="#26875f"/>
<circle cx="465.5" cy="236.3" r="4" fill="#26875f"/>
<circle cx="466.8" cy="235.1" r="4" fill="#26875f"/>
<circle cx="468.0" cy="236.1" r="4" fill="#26875f"/>
<circle cx="469.3" cy="235.6" r="4" fill="#26875f"/>
<circle cx="470.5" cy="233.6" r="4" fill="#26875f"/>
<circle cx="471.8" cy="234.0" r="4" fill="#26875f"/>
<circle cx="473.0" cy="236.2" r="4" fill="#26875f"/>
<circle cx="474.3" cy="234.0" r="4" fill="#26875f"/>
<circle cx="475.5" cy="228.6" r="4" fill="#26875f"/>
<circle cx="476.8" cy="230.8" r="4" fill="#26875f"/>
<circle cx="478.0" cy="234.4" r="4" fill="#26875f"/>
<circle cx="480.5" cy="235.1" r="4" fill="#26875f"/>
<circle cx="481.8" cy="233.5" r="4" fill="#26875f"/>
<circle cx="483.0" cy="235.6" r="4" fill="#26875f"/>
<circle cx="484.3" cy="235.3" r="4" fill="#26875f"/>
<circle cx="485.5" cy="235.5" r="4" fill="#26875f"/>
<circle cx="486.8" cy="236.3" r="4" fill="#26875f"/>
<circle cx="488.0" cy="235.3" r="4" fill="#26875f"/>
<circle cx="489.3" cy="234.6" r="4" fill="#26875f"/>
<circle cx="490.5" cy="236.2" r="4" fill="#26875f"/>
<circle cx="491.8" cy="236.2" r="4" fill="#26875f"/>
<circle cx="493.1" cy="235.9" r="4" fill="#26875f"/>
<circle cx="494.3" cy="236.1" r="4" fill="#26875f"/>
<circle cx="495.6" cy="234.5" r="4" fill="#26875f"/>
<circle cx="496.8" cy="235.7" r="4" fill="#26875f"/>
<circle cx="500.6" cy="235.9" r="4" fill="#26875f"/>
<circle cx="501.8" cy="236.0" r="4" fill="#26875f"/>
<circle cx="503.1" cy="235.4" r="4" fill="#26875f"/>
<circle cx="504.3" cy="236.3" r="4" fill="#26875f"/>
<circle cx="505.6" cy="236.2" r="4" fill="#26875f"/>
<circle cx="506.8" cy="236.1" r="4" fill="#26875f"/>
<circle cx="508.1" cy="236.0" r="4" fill="#26875f"/>
<circle cx="509.3" cy="236.1" r="4" fill="#26875f"/>
<circle cx="510.6" cy="235.6" r="4" fill="#26875f"/>
<circle cx="511.8" cy="236.1" r="4" fill="#26875f"/>
<circle cx="513.1" cy="236.3" r="4" fill="#26875f"/>
<circle cx="514.3" cy="236.3" r="4" fill="#26875f"/>
<circle cx="515.6" cy="233.4" r="4" fill="#26875f"/>
<circle cx="516.8" cy="236.2" r="4" fill="#26875f"/>
<circle cx="518.1" cy="236.3" r="4" fill="#26875f"/>
<circle cx="519.3" cy="236.0" r="4" fill="#26875f"/>
<circle cx="520.6" cy="236.3" r="4" fill="#26875f"/>
<circle cx="521.8" cy="234.9" r="4" fill="#26875f"/>
<circle cx="523.1" cy="236.2" r="4" fill="#26875f"/>
<circle cx="524.3" cy="236.5" r="4" fill="#26875f"/>
<circle cx="525.6" cy="234.5" r="4" fill="#26875f"/>
<circle cx="526.8" cy="246.4" r="4" fill="#26875f"/>
<circle cx="528.1" cy="235.3" r="4" fill="#26875f"/>
<circle cx="529.4" cy="235.6" r="4" fill="#26875f"/>
<circle cx="530.6" cy="235.6" r="4" fill="#26875f"/>
<circle cx="533.1" cy="235.8" r="4" fill="#26875f"/>
<circle cx="534.4" cy="236.3" r="4" fill="#26875f"/>
<circle cx="536.9" cy="236.3" r="4" fill="#26875f"/>
<circle cx="538.1" cy="236.0" r="4" fill="#26875f"/>
<circle cx="539.4" cy="236.2" r="4" fill="#26875f"/>
<circle cx="540.6" cy="236.4" r="4" fill="#26875f"/>
<circle cx="541.9" cy="236.3" r="4" fill="#26875f"/>
<circle cx="543.1" cy="235.1" r="4" fill="#26875f"/>
<circle cx="544.4" cy="236.3" r="4" fill="#26875f"/>
<circle cx="545.6" cy="236.2" r="4" fill="#26875f"/>
<circle cx="546.9" cy="236.3" r="4" fill="#26875f"/>
<circle cx="548.1" cy="236.3" r="4" fill="#6d6f73"/>
<circle cx="550.6" cy="234.9" r="4" fill="#6d6f73"/>
<circle cx="551.9" cy="236.3" r="4" fill="#26875f"/>
<circle cx="553.1" cy="236.3" r="4" fill="#26875f"/>
<circle cx="554.4" cy="236.1" r="4" fill="#26875f"/>
<circle cx="555.6" cy="236.1" r="4" fill="#26875f"/>
<circle cx="556.9" cy="236.3" r="4" fill="#26875f"/>
<circle cx="558.1" cy="236.0" r="4" fill="#26875f"/>
<circle cx="559.4" cy="235.7" r="4" fill="#26875f"/>
<circle cx="560.6" cy="236.2" r="4" fill="#6d6f73"/>
<circle cx="561.9" cy="236.3" r="4" fill="#26875f"/>
<circle cx="563.1" cy="235.7" r="4" fill="#26875f"/>
<circle cx="564.4" cy="236.0" r="4" fill="#26875f"/>
<circle cx="565.6" cy="236.1" r="4" fill="#26875f"/>
<circle cx="566.9" cy="236.3" r="4" fill="#26875f"/>
<circle cx="569.4" cy="235.3" r="4" fill="#26875f"/>
<circle cx="570.7" cy="236.3" r="4" fill="#26875f"/>
<circle cx="571.9" cy="236.3" r="4" fill="#26875f"/>
<circle cx="573.2" cy="234.4" r="4" fill="#26875f"/>
<circle cx="574.4" cy="236.3" r="4" fill="#26875f"/>
<circle cx="575.7" cy="236.2" r="4" fill="#26875f"/>
<circle cx="576.9" cy="236.1" r="4" fill="#26875f"/>
<circle cx="578.2" cy="236.3" r="4" fill="#26875f"/>
<circle cx="579.4" cy="236.1" r="4" fill="#26875f"/>
<circle cx="580.7" cy="236.0" r="4" fill="#26875f"/>
<circle cx="583.2" cy="236.2" r="4" fill="#26875f"/>
<circle cx="584.4" cy="236.3" r="4" fill="#26875f"/>
<circle cx="585.7" cy="236.3" r="4" fill="#26875f"/>
<circle cx="586.9" cy="236.3" r="4" fill="#26875f"/>
<circle cx="588.2" cy="236.3" r="4" fill="#26875f"/>
<circle cx="589.4" cy="236.2" r="4" fill="#26875f"/>
<circle cx="590.7" cy="236.3" r="4" fill="#26875f"/>
<circle cx="591.9" cy="236.3" r="4" fill="#26875f"/>
<circle cx="593.2" cy="236.2" r="4" fill="#26875f"/>
<circle cx="594.4" cy="233.9" r="4" fill="#26875f"/>
<circle cx="595.7" cy="236.3" r="4" fill="#26875f"/>
<circle cx="596.9" cy="236.3" r="4" fill="#26875f"/>
<circle cx="598.2" cy="236.3" r="4" fill="#26875f"/>
<circle cx="599.4" cy="235.1" r="4" fill="#26875f"/>
<circle cx="600.7" cy="242.4" r="4" fill="#26875f"/>
<circle cx="601.9" cy="234.5" r="4" fill="#26875f"/>
<circle cx="603.2" cy="233.5" r="4" fill="#26875f"/>
<circle cx="604.5" cy="235.4" r="4" fill="#26875f"/>
<circle cx="605.7" cy="236.3" r="4" fill="#26875f"/>
<circle cx="607.0" cy="233.4" r="4" fill="#26875f"/>
<circle cx="608.2" cy="236.2" r="4" fill="#26875f"/>
<circle cx="609.5" cy="235.0" r="4" fill="#26875f"/>
<circle cx="610.7" cy="220.3" r="4" fill="#26875f"/>
<circle cx="612.0" cy="236.1" r="4" fill="#26875f"/>
<circle cx="613.2" cy="236.1" r="4" fill="#6d6f73"/>
<circle cx="614.5" cy="236.3" r="4" fill="#26875f"/>
<circle cx="615.7" cy="236.3" r="4" fill="#6d6f73"/>
<circle cx="617.0" cy="235.0" r="4" fill="#c43c39"/>
<circle cx="618.2" cy="235.2" r="4" fill="#6d6f73"/>
<circle cx="619.5" cy="236.3" r="4" fill="#c43c39"/>
<circle cx="622.0" cy="234.7" r="4" fill="#c43c39"/>
<circle cx="623.2" cy="236.3" r="4" fill="#6d6f73"/>
<circle cx="624.5" cy="235.0" r="4" fill="#6d6f73"/>
<circle cx="625.7" cy="235.6" r="4" fill="#6d6f73"/>
<circle cx="627.0" cy="236.0" r="4" fill="#6d6f73"/>
<circle cx="628.2" cy="236.3" r="4" fill="#c43c39"/>
<circle cx="629.5" cy="236.3" r="4" fill="#c43c39"/>
<circle cx="630.7" cy="236.4" r="4" fill="#c43c39"/>
<circle cx="632.0" cy="236.3" r="4" fill="#c43c39"/>
<circle cx="633.2" cy="236.3" r="4" fill="#c43c39"/>
<circle cx="634.5" cy="236.1" r="4" fill="#c43c39"/>
<circle cx="635.7" cy="233.0" r="4" fill="#c43c39"/>
<circle cx="637.0" cy="235.8" r="4" fill="#c43c39"/>
<circle cx="638.2" cy="235.9" r="4" fill="#c43c39"/>
<circle cx="639.5" cy="235.5" r="4" fill="#c43c39"/>
<circle cx="640.8" cy="236.3" r="4" fill="#c43c39"/>
<circle cx="642.0" cy="236.3" r="4" fill="#6d6f73"/>
<circle cx="643.3" cy="236.3" r="4" fill="#26875f"/>
<circle cx="644.5" cy="235.8" r="4" fill="#26875f"/>
<circle cx="645.8" cy="235.3" r="4" fill="#26875f"/>
<circle cx="647.0" cy="235.7" r="4" fill="#26875f"/>
<circle cx="648.3" cy="235.7" r="4" fill="#26875f"/>
<circle cx="649.5" cy="237.2" r="4" fill="#26875f"/>
<circle cx="650.8" cy="235.9" r="4" fill="#26875f"/>
<circle cx="652.0" cy="211.3" r="4" fill="#26875f"/>
<circle cx="653.3" cy="236.1" r="4" fill="#26875f"/>
<circle cx="654.5" cy="236.1" r="4" fill="#26875f"/>
<circle cx="655.8" cy="235.6" r="4" fill="#26875f"/>
<circle cx="657.0" cy="234.6" r="4" fill="#26875f"/>
<circle cx="658.3" cy="236.1" r="4" fill="#26875f"/>
<circle cx="659.5" cy="236.2" r="4" fill="#26875f"/>
<circle cx="660.8" cy="236.3" r="4" fill="#26875f"/>
<circle cx="662.0" cy="236.1" r="4" fill="#26875f"/>
<circle cx="663.3" cy="236.3" r="4" fill="#6d6f73"/>
<circle cx="664.5" cy="236.1" r="4" fill="#26875f"/>
<circle cx="665.8" cy="236.2" r="4" fill="#c43c39"/>
<circle cx="667.0" cy="270.6" r="4" fill="#c43c39"/>
<circle cx="668.3" cy="240.0" r="4" fill="#c43c39"/>
<circle cx="669.5" cy="236.3" r="4" fill="#c43c39"/>
<circle cx="670.8" cy="236.3" r="4" fill="#c43c39"/>
<circle cx="672.0" cy="236.3" r="4" fill="#c43c39"/>
<circle cx="673.3" cy="231.3" r="4" fill="#6d6f73"/>
<circle cx="674.5" cy="236.3" r="4" fill="#c43c39"/>
<circle cx="675.8" cy="236.1" r="4" fill="#c43c39"/>
<circle cx="677.1" cy="236.1" r="4" fill="#c43c39"/>
<circle cx="678.3" cy="236.3" r="4" fill="#c43c39"/>
<circle cx="679.6" cy="235.7" r="4" fill="#c43c39"/>
<circle cx="680.8" cy="236.3" r="4" fill="#c43c39"/>
<circle cx="682.1" cy="236.1" r="4" fill="#c43c39"/>
<circle cx="683.3" cy="236.4" r="4" fill="#c43c39"/>
<circle cx="684.6" cy="236.2" r="4" fill="#c43c39"/>
<circle cx="685.8" cy="236.2" r="4" fill="#c43c39"/>
<circle cx="687.1" cy="236.3" r="4" fill="#c43c39"/>
<circle cx="688.3" cy="236.1" r="4" fill="#c43c39"/>
<circle cx="690.8" cy="236.0" r="4" fill="#c43c39"/>
<circle cx="692.1" cy="236.3" r="4" fill="#26875f"/>
<circle cx="693.3" cy="236.3" r="4" fill="#6d6f73"/>
<circle cx="694.6" cy="236.3" r="4" fill="#26875f"/>
<circle cx="695.8" cy="236.3" r="4" fill="#6d6f73"/>
<circle cx="697.1" cy="235.9" r="4" fill="#c43c39"/>
<circle cx="698.3" cy="236.3" r="4" fill="#c43c39"/>
<circle cx="699.6" cy="236.2" r="4" fill="#c43c39"/>
<circle cx="700.8" cy="236.3" r="4" fill="#c43c39"/>
<circle cx="702.1" cy="236.3" r="4" fill="#c43c39"/>
<circle cx="703.3" cy="236.3" r="4" fill="#c43c39"/>
<circle cx="705.8" cy="236.0" r="4" fill="#c43c39"/>
<circle cx="707.1" cy="236.3" r="4" fill="#c43c39"/>
<circle cx="708.3" cy="236.6" r="4" fill="#c43c39"/>
<circle cx="710.8" cy="236.3" r="4" fill="#c43c39"/>
<circle cx="712.1" cy="236.3" r="4" fill="#c43c39"/>
<circle cx="713.4" cy="236.4" r="4" fill="#c43c39"/>
<circle cx="714.6" cy="236.3" r="4" fill="#c43c39"/>
<circle cx="718.4" cy="236.3" r="4" fill="#6d6f73"/>
<circle cx="723.4" cy="236.6" r="4" fill="#6d6f73"/>
<circle cx="724.6" cy="236.3" r="4" fill="#6d6f73"/>
<circle cx="725.9" cy="233.7" r="4" fill="#6d6f73"/>
<circle cx="727.1" cy="226.3" r="4" fill="#6d6f73"/>
<circle cx="728.4" cy="236.3" r="4" fill="#6d6f73"/>
<circle cx="729.6" cy="236.2" r="4" fill="#6d6f73"/>
<circle cx="730.9" cy="236.3" r="4" fill="#6d6f73"/>
<circle cx="732.1" cy="236.3" r="4" fill="#26875f"/>
<circle cx="733.4" cy="236.2" r="4" fill="#6d6f73"/>
<circle cx="734.6" cy="236.3" r="4" fill="#26875f"/>
<circle cx="735.9" cy="236.3" r="4" fill="#26875f"/>
<circle cx="738.4" cy="235.6" r="4" fill="#26875f"/>
<circle cx="739.6" cy="236.3" r="4" fill="#6d6f73"/>
<circle cx="740.9" cy="236.3" r="4" fill="#c43c39"/>
<circle cx="742.1" cy="236.3" r="4" fill="#c43c39"/>
<circle cx="743.4" cy="236.3" r="4" fill="#c43c39"/>
<circle cx="744.6" cy="234.8" r="4" fill="#6d6f73"/>
<circle cx="745.9" cy="236.3" r="4" fill="#6d6f73"/>
<circle cx="747.1" cy="236.3" r="4" fill="#6d6f73"/>
<circle cx="748.4" cy="234.8" r="4" fill="#6d6f73"/>
<circle cx="749.7" cy="236.2" r="4" fill="#6d6f73"/>
<circle cx="750.9" cy="236.3" r="4" fill="#c43c39"/>
<circle cx="752.2" cy="233.9" r="4" fill="#c43c39"/>
<circle cx="753.4" cy="236.2" r="4" fill="#6d6f73"/>
<circle cx="754.7" cy="236.3" r="4" fill="#6d6f73"/>
<circle cx="755.9" cy="235.8" r="4" fill="#6d6f73"/>
<circle cx="757.2" cy="236.0" r="4" fill="#26875f"/>
<circle cx="758.4" cy="236.3" r="4" fill="#26875f"/>
<circle cx="759.7" cy="236.3" r="4" fill="#26875f"/>
<circle cx="760.9" cy="236.2" r="4" fill="#26875f"/>
<circle cx="762.2" cy="236.3" r="4" fill="#26875f"/>
<circle cx="763.4" cy="236.2" r="4" fill="#26875f"/>
<circle cx="764.7" cy="235.7" r="4" fill="#26875f"/>
<circle cx="765.9" cy="236.3" r="4" fill="#26875f"/>
<circle cx="767.2" cy="236.3" r="4" fill="#26875f"/>
<circle cx="769.7" cy="232.7" r="4" fill="#26875f"/>
<circle cx="772.2" cy="236.1" r="4" fill="#26875f"/>
<circle cx="773.4" cy="236.3" r="4" fill="#26875f"/>
<circle cx="774.7" cy="236.1" r="4" fill="#26875f"/>
<circle cx="775.9" cy="236.3" r="4" fill="#26875f"/>
<circle cx="777.2" cy="236.1" r="4" fill="#26875f"/>
<circle cx="778.4" cy="236.0" r="4" fill="#26875f"/>
<circle cx="779.7" cy="236.3" r="4" fill="#26875f"/>
<circle cx="780.9" cy="236.3" r="4" fill="#26875f"/>
<circle cx="782.2" cy="235.6" r="4" fill="#26875f"/>
<circle cx="783.4" cy="236.1" r="4" fill="#26875f"/>
<circle cx="784.7" cy="235.5" r="4" fill="#26875f"/>
<circle cx="786.0" cy="235.1" r="4" fill="#26875f"/>
<circle cx="787.2" cy="236.4" r="4" fill="#26875f"/>
<circle cx="788.5" cy="236.3" r="4" fill="#26875f"/>
<circle cx="789.7" cy="236.1" r="4" fill="#26875f"/>
<circle cx="791.0" cy="234.5" r="4" fill="#26875f"/>
<circle cx="792.2" cy="235.5" r="4" fill="#26875f"/>
<circle cx="793.5" cy="234.2" r="4" fill="#26875f"/>
<circle cx="794.7" cy="235.1" r="4" fill="#26875f"/>
<circle cx="796.0" cy="235.3" r="4" fill="#26875f"/>
<circle cx="797.2" cy="235.6" r="4" fill="#26875f"/>
<circle cx="798.5" cy="236.1" r="4" fill="#26875f"/>
<circle cx="799.7" cy="235.2" r="4" fill="#26875f"/>
<circle cx="801.0" cy="235.5" r="4" fill="#26875f"/>
<circle cx="802.2" cy="235.3" r="4" fill="#26875f"/>
<circle cx="803.5" cy="235.9" r="4" fill="#26875f"/>
<circle cx="804.7" cy="241.5" r="4" fill="#26875f"/>
<circle cx="806.0" cy="235.5" r="4" fill="#26875f"/>
<circle cx="807.2" cy="236.1" r="4" fill="#26875f"/>
<circle cx="808.5" cy="234.8" r="4" fill="#26875f"/>
<circle cx="809.7" cy="236.1" r="4" fill="#26875f"/>
<circle cx="811.0" cy="237.2" r="4" fill="#26875f"/>
<circle cx="812.2" cy="271.8" r="4" fill="#26875f"/>
<circle cx="813.5" cy="187.1" r="4" fill="#26875f"/>
<circle cx="814.7" cy="226.1" r="4" fill="#26875f"/>
<circle cx="816.0" cy="225.0" r="4" fill="#26875f"/>
<circle cx="817.2" cy="231.2" r="4" fill="#26875f"/>
<circle cx="818.5" cy="229.8" r="4" fill="#26875f"/>
<circle cx="819.7" cy="154.8" r="4" fill="#26875f"/>
<circle cx="821.0" cy="216.5" r="4" fill="#26875f"/>
<circle cx="822.3" cy="262.3" r="4" fill="#26875f"/>
<circle cx="823.5" cy="212.4" r="4" fill="#26875f"/>
<circle cx="824.8" cy="231.9" r="4" fill="#26875f"/>
<circle cx="826.0" cy="234.6" r="4" fill="#26875f"/>
<circle cx="827.3" cy="225.5" r="4" fill="#26875f"/>
<circle cx="828.5" cy="147.6" r="4" fill="#26875f"/>
<circle cx="829.8" cy="69.7" r="4" fill="#26875f"/>
<circle cx="831.0" cy="227.5" r="4" fill="#26875f"/>
<circle cx="832.3" cy="189.7" r="4" fill="#26875f"/>
<circle cx="833.5" cy="209.2" r="4" fill="#26875f"/>
<circle cx="834.8" cy="190.0" r="4" fill="#26875f"/>
<circle cx="836.0" cy="175.4" r="4" fill="#26875f"/>
<circle cx="837.3" cy="232.7" r="4" fill="#26875f"/>
<circle cx="838.5" cy="219.1" r="4" fill="#26875f"/>
<circle cx="839.8" cy="165.7" r="4" fill="#26875f"/>
<circle cx="841.0" cy="194.7" r="4" fill="#26875f"/>
<circle cx="842.3" cy="138.4" r="4" fill="#26875f"/>
<circle cx="843.5" cy="244.8" r="4" fill="#26875f"/>
<circle cx="844.8" cy="232.3" r="4" fill="#26875f"/>
<circle cx="846.0" cy="236.1" r="4" fill="#26875f"/>
<circle cx="847.3" cy="219.7" r="4" fill="#26875f"/>
<circle cx="848.5" cy="235.6" r="4" fill="#26875f"/>
<circle cx="849.8" cy="236.1" r="4" fill="#26875f"/>
<circle cx="851.0" cy="235.5" r="4" fill="#26875f"/>
<circle cx="852.3" cy="233.9" r="4" fill="#26875f"/>
<circle cx="853.5" cy="234.9" r="4" fill="#26875f"/>
<circle cx="854.8" cy="239.0" r="4" fill="#26875f"/>
<circle cx="856.0" cy="233.9" r="4" fill="#26875f"/>
<circle cx="857.3" cy="234.7" r="4" fill="#26875f"/>
<circle cx="858.5" cy="235.7" r="4" fill="#26875f"/>
<circle cx="859.8" cy="235.5" r="4" fill="#26875f"/>
<circle cx="861.1" cy="234.7" r="4" fill="#26875f"/>
<circle cx="862.3" cy="231.9" r="4" fill="#26875f"/>
<circle cx="863.6" cy="200.3" r="4" fill="#26875f"/>
<circle cx="864.8" cy="223.3" r="4" fill="#26875f"/>
<circle cx="866.1" cy="239.7" r="4" fill="#6d6f73"/>
<circle cx="867.3" cy="235.8" r="4" fill="#26875f"/>
<circle cx="868.6" cy="234.9" r="4" fill="#26875f"/>
<circle cx="869.8" cy="233.9" r="4" fill="#26875f"/>
<circle cx="871.1" cy="231.9" r="4" fill="#26875f"/>
<circle cx="872.3" cy="232.3" r="4" fill="#26875f"/>
<circle cx="873.6" cy="230.8" r="4" fill="#26875f"/>
<circle cx="874.8" cy="234.5" r="4" fill="#26875f"/>
<circle cx="876.1" cy="236.4" r="4" fill="#26875f"/>
<circle cx="877.3" cy="212.4" r="4" fill="#26875f"/>
<circle cx="878.6" cy="212.6" r="4" fill="#26875f"/>
<circle cx="879.8" cy="233.3" r="4" fill="#26875f"/>
<circle cx="881.1" cy="230.7" r="4" fill="#26875f"/>
<circle cx="882.3" cy="208.4" r="4" fill="#26875f"/>
<circle cx="883.6" cy="233.5" r="4" fill="#26875f"/>
<circle cx="884.8" cy="239.3" r="4" fill="#26875f"/>
<circle cx="886.1" cy="225.1" r="4" fill="#26875f"/>
<circle cx="887.3" cy="224.9" r="4" fill="#26875f"/>
<circle cx="888.6" cy="231.3" r="4" fill="#26875f"/>
<circle cx="889.8" cy="230.0" r="4" fill="#26875f"/>
<circle cx="891.1" cy="230.1" r="4" fill="#26875f"/>
<circle cx="892.3" cy="226.5" r="4" fill="#26875f"/>
<circle cx="893.6" cy="227.4" r="4" fill="#26875f"/>
<circle cx="894.8" cy="191.3" r="4" fill="#26875f"/>
<circle cx="896.1" cy="140.0" r="4" fill="#c43c39"/>
<circle cx="897.4" cy="121.3" r="4" fill="#26875f"/>
<circle cx="898.6" cy="220.9" r="4" fill="#6d6f73"/>
<circle cx="899.9" cy="227.1" r="4" fill="#6d6f73"/>
<circle cx="901.1" cy="230.3" r="4" fill="#c43c39"/>
<circle cx="902.4" cy="236.2" r="4" fill="#c43c39"/>
<circle cx="903.6" cy="194.5" r="4" fill="#6d6f73"/>
<circle cx="904.9" cy="218.7" r="4" fill="#c43c39"/>
<circle cx="906.1" cy="238.1" r="4" fill="#6d6f73"/>
<circle cx="907.4" cy="231.1" r="4" fill="#6d6f73"/>
<circle cx="908.6" cy="228.8" r="4" fill="#6d6f73"/>
<circle cx="909.9" cy="177.0" r="4" fill="#6d6f73"/>
<circle cx="911.1" cy="223.9" r="4" fill="#6d6f73"/>
<circle cx="912.4" cy="235.7" r="4" fill="#6d6f73"/>
<circle cx="913.6" cy="235.9" r="4" fill="#6d6f73"/>
<circle cx="914.9" cy="211.1" r="4" fill="#6d6f73"/>
<circle cx="916.1" cy="232.3" r="4" fill="#c43c39"/>
<circle cx="917.4" cy="223.8" r="4" fill="#6d6f73"/>
<circle cx="918.6" cy="203.2" r="4" fill="#26875f"/>
<circle cx="919.9" cy="229.5" r="4" fill="#6d6f73"/>
<circle cx="921.1" cy="233.4" r="4" fill="#6d6f73"/>
<circle cx="922.4" cy="226.2" r="4" fill="#6d6f73"/>
<circle cx="923.6" cy="180.2" r="4" fill="#c43c39"/>
<circle cx="924.9" cy="218.9" r="4" fill="#c43c39"/>
<circle cx="926.1" cy="246.6" r="4" fill="#c43c39"/>
<circle cx="927.4" cy="173.7" r="4" fill="#c43c39"/>
<circle cx="928.6" cy="233.4" r="4" fill="#c43c39"/>
<circle cx="929.9" cy="218.2" r="4" fill="#c43c39"/>
<circle cx="931.1" cy="65.0" r="4" fill="#c43c39"/>
<circle cx="932.4" cy="186.2" r="4" fill="#c43c39"/>
<circle cx="933.7" cy="162.0" r="4" fill="#c43c39"/>
<circle cx="934.9" cy="232.2" r="4" fill="#c43c39"/>
<circle cx="936.2" cy="195.9" r="4" fill="#c43c39"/>
<circle cx="937.4" cy="229.5" r="4" fill="#c43c39"/>
<circle cx="938.7" cy="231.5" r="4" fill="#c43c39"/>
<circle cx="939.9" cy="240.1" r="4" fill="#c43c39"/>
<circle cx="941.2" cy="258.4" r="4" fill="#c43c39"/>
<circle cx="942.4" cy="157.1" r="4" fill="#c43c39"/>
<circle cx="943.7" cy="232.6" r="4" fill="#6d6f73"/>
<circle cx="944.9" cy="217.5" r="4" fill="#c43c39"/>
<circle cx="946.2" cy="214.6" r="4" fill="#6d6f73"/>
<circle cx="947.4" cy="239.2" r="4" fill="#c43c39"/>
<circle cx="948.7" cy="229.2" r="4" fill="#c43c39"/>
<circle cx="949.9" cy="216.4" r="4" fill="#c43c39"/>
<circle cx="951.2" cy="228.3" r="4" fill="#c43c39"/>
<circle cx="952.4" cy="233.5" r="4" fill="#6d6f73"/>
<circle cx="953.7" cy="234.5" r="4" fill="#c43c39"/>
<circle cx="954.9" cy="232.9" r="4" fill="#c43c39"/>
<circle cx="956.2" cy="232.6" r="4" fill="#c43c39"/>
<circle cx="957.4" cy="206.4" r="4" fill="#6d6f73"/>
<circle cx="958.7" cy="227.8" r="4" fill="#6d6f73"/>
<circle cx="959.9" cy="232.4" r="4" fill="#6d6f73"/>
<circle cx="961.2" cy="220.1" r="4" fill="#c43c39"/>
<circle cx="962.4" cy="230.5" r="4" fill="#c43c39"/>
<circle cx="963.7" cy="233.2" r="4" fill="#c43c39"/>
<circle cx="964.9" cy="232.1" r="4" fill="#c43c39"/>
<circle cx="966.2" cy="234.5" r="4" fill="#c43c39"/>
<circle cx="967.4" cy="237.0" r="4" fill="#c43c39"/>
<circle cx="968.7" cy="180.3" r="4" fill="#c43c39"/>
<circle cx="970.0" cy="237.3" r="4" fill="#c43c39"/>
<circle cx="971.2" cy="243.6" r="4" fill="#c43c39"/>
<circle cx="972.5" cy="226.4" r="4" fill="#c43c39"/>
<circle cx="973.7" cy="223.4" r="4" fill="#c43c39"/>
<circle cx="975.0" cy="227.5" r="4" fill="#c43c39"/>
<circle cx="976.2" cy="227.2" r="4" fill="#c43c39"/>
<circle cx="977.5" cy="226.0" r="4" fill="#c43c39"/>
<circle cx="978.7" cy="194.2" r="4" fill="#c43c39"/>
<circle cx="980.0" cy="201.7" r="4" fill="#c43c39"/>
<circle cx="981.2" cy="125.3" r="4" fill="#c43c39"/>
<circle cx="982.5" cy="223.5" r="4" fill="#6d6f73"/>
<circle cx="983.7" cy="224.2" r="4" fill="#c43c39"/>
<circle cx="985.0" cy="216.7" r="4" fill="#c43c39"/>
<circle cx="986.2" cy="221.7" r="4" fill="#c43c39"/>
<circle cx="987.5" cy="234.9" r="4" fill="#c43c39"/>
<circle cx="988.7" cy="236.2" r="4" fill="#c43c39"/>
<circle cx="990.0" cy="218.1" r="4" fill="#c43c39"/>
<circle cx="991.2" cy="229.9" r="4" fill="#c43c39"/>
<circle cx="992.5" cy="228.5" r="4" fill="#c43c39"/>
<circle cx="993.7" cy="221.6" r="4" fill="#6d6f73"/>
<circle cx="995.0" cy="355.0" r="4" fill="#26875f"/>
<circle cx="996.2" cy="224.2" r="4" fill="#26875f"/>
<circle cx="997.5" cy="232.4" r="4" fill="#26875f"/>
<circle cx="998.7" cy="238.2" r="4" fill="#26875f"/>
<circle cx="1000.0" cy="235.6" r="4" fill="#26875f"/>
<circle cx="1001.2" cy="227.7" r="4" fill="#6d6f73"/>
<circle cx="1002.5" cy="202.7" r="4" fill="#26875f"/>
<circle cx="1003.7" cy="233.2" r="4" fill="#26875f"/>
<circle cx="1005.0" cy="221.9" r="4" fill="#6d6f73"/>
<text x="90.0" y="395" text-anchor="middle" class="axis">2023-05-01</text>
<text x="504.3" y="395" text-anchor="middle" class="axis">2024-03-27</text>
<text x="632.0" y="395" text-anchor="middle" class="axis">2024-07-07</text>
<text x="762.2" y="395" text-anchor="middle" class="axis">2024-10-19</text>
<text x="884.8" y="395" text-anchor="middle" class="axis">2025-01-25</text>
<text x="1005.0" y="395" text-anchor="middle" class="axis">2025-05-01</text>
</svg>