<svg xmlns="http://www.w3.org/2000/svg" width="1000" height="430" viewBox="0 0 1000 430">
<rect width="100%" height="100%" fill="#ffffff"/>
<style>
text { font-family: Arial, sans-serif; fill: #1f2933; }
.title { font-size: 20px; font-weight: 700; }
.axis { font-size: 12px; fill: #52616b; }
.label { font-size: 12px; }
.value { font-size: 12px; font-weight: 700; }
.grid { stroke: #e6e8eb; stroke-width: 1; }
</style>
<text x="90" y="35" class="title">Behavior by Sentiment</text>
<line x1="90" x2="960" y1="355.0" y2="355.0" class="grid"/>
<text x="80" y="359.0" text-anchor="end" class="axis">0</text>
<line x1="90" x2="960" y1="283.8" y2="283.8" class="grid"/>
<text x="80" y="287.8" text-anchor="end" class="axis">2,132</text>
<line x1="90" x2="960" y1="212.5" y2="212.5" class="grid"/>
<text x="80" y="216.5" text-anchor="end" class="axis">4,265</text>
<line x1="90" x2="960" y1="141.2" y2="141.2" class="grid"/>
<text x="80" y="145.2" text-anchor="end" class="axis">6,397</text>
<line x1="90" x2="960" y1="70.0" y2="70.0" class="grid"/>
<text x="80" y="74.0" text-anchor="end" class="axis">8,530</text>
<line x1="90" x2="960" y1="355.0" y2="355.0" stroke="#9aa5b1"/>
<rect x="106.0" y="351.5" width="80.0" height="3.5" fill="#7b61a8" rx="3"/>
<text x="146.0" y="345.5" text-anchor="middle" class="value">105</text>
<rect x="194.0" y="70.0" width="80.0" height="285.0" fill="#26875f" rx="3"/>
<text x="234.0" y="64.0" text-anchor="middle" class="value">8,530</text>
<rect x="282.0" y="355.0" width="80.0" height="1.0" fill="#d4892a" rx="3"/>
<text x="322.0" y="349.0" text-anchor="middle" class="value">1</text>
<text x="235.0" y="395" text-anchor="middle" class="label">Fear</text>
<rect x="396.0" y="352.4" width="80.0" height="2.6" fill="#7b61a8" rx="3"/>
<text x="436.0" y="346.4" text-anchor="middle" class="value">77</text>
<rect x="484.0" y="156.0" width="80.0" height="199.0" fill="#26875f" rx="3"/>
<text x="524.0" y="150.0" text-anchor="middle" class="value">5,955</text>
<rect x="572.0" y="355.0" width="80.0" height="1.0" fill="#d4892a" rx="3"/>
<text x="612.0" y="349.0" text-anchor="middle" class="value">1</text>
<text x="525.0" y="395" text-anchor="middle" class="label">Greed</text>
<rect x="686.0" y="351.7" width="80.0" height="3.3" fill="#7b61a8" rx="3"/>
<text x="726.0" y="345.7" text-anchor="middle" class="value">100</text>
<rect x="774.0" y="122.3" width="80.0" height="232.7" fill="#26875f" rx="3"/>
<text x="814.0" y="116.3" text-anchor="middle" class="value">6,964</text>
<rect x="862.0" y="355.0" width="80.0" height="1.0" fill="#d4892a" rx="3"/>
<text x="902.0" y="349.0" text-anchor="middle" class="value">1</text>
<text x="815.0" y="395" text-anchor="middle" class="label">Neutral</text>
<rect x="770" y="28" width="12" height="12" fill="#7b61a8"/>
<text x="788" y="38" class="axis">Trades/account/day</text>
<rect x="770" y="48" width="12" height="12" fill="#26875f"/>
<text x="788" y="58" class="axis">Avg size USD</text>
<rect x="770" y="68" width="12" height="12" fill="#d4892a"/>
<text x="788" y="78" class="axis">Buy/sell ratio</text>
</svg>