<svg xmlns="http://www.w3.org/2000/svg" width="1000" height="430" viewBox="0 0 1000 430">
<rect width="100%" height="100%" fill="#ffffff"/>
<style>
text { font-family: Arial, sans-serif; fill: #1f2933; }
.title { font-size: 20px; font-weight: 700; }
.axis { font-size: 12px; fill: #52616b; }
.label { font-size: 12px; }
.value { font-size: 12px; font-weight: 700; }
.grid { stroke: #e6e8eb; stroke-width: 1; }
</style>
<text x="90" y="35" class="title">Performance by Sentiment</text>
<line x1="90" x2="960" y1="355.0" y2="355.0" class="grid"/>
<text x="80" y="359.0" text-anchor="end" class="axis">-3,514</text>
<line x1="90" x2="960" y1="283.8" y2="283.8" class="grid"/>
<text x="80" y="287.8" text-anchor="end" class="axis">-1,376</text>
<line x1="90" x2="960" y1="212.5" y2="212.5" class="grid"/>
<text x="80" y="216.5" text-anchor="end" class="axis">762</text>
<line x1="90" x2="960" y1="141.2" y2="141.2" class="grid"/>
<text x="80" y="145.2" text-anchor="end" class="axis">2,900</text>
<line x1="90" x2="960" y1="70.0" y2="70.0" class="grid"/>
<text x="80" y="74.0" text-anchor="end" class="axis">5,038</text>
<line x1="90" x2="960" y1="237.9" y2="237.9" stroke="#9aa5b1"/>
<rect x="106.0" y="70.0" width="124.0" height="167.9" fill="#3d6fb6" rx="3"/>
<text x="168.0" y="64.0" text-anchor="middle" class="value">5,038</text>
<rect x="238.0" y="237.9" width="124.0" height="117.1" fill="#c43c39" rx="3"/>
<text x="300.0" y="231.9" text-anchor="middle" class="value">-3,514</text>
<text x="235.0" y="395" text-anchor="middle" class="label">Fear</text>
<rect x="396.0" y="102.3" width="124.0" height="135.5" fill="#3d6fb6" rx="3"/>
<text x="458.0" y="96.3" text-anchor="middle" class="value">4,067</text>
<rect x="528.0" y="237.9" width="124.0" height="10.0" fill="#c43c39" rx="3"/>
<text x="590.0" y="231.9" text-anchor="middle" class="value">-301</text>
<text x="525.0" y="395" text-anchor="middle" class="label">Greed</text>
<rect x="686.0" y="126.8" width="124.0" height="111.1" fill="#3d6fb6" rx="3"/>
<text x="748.0" y="120.8" text-anchor="middle" class="value">3,334</text>
<rect x="818.0" y="237.9" width="124.0" height="39.5" fill="#c43c39" rx="3"/>
<text x="880.0" y="231.9" text-anchor="middle" class="value">-1,186</text>
<text x="815.0" y="395" text-anchor="middle" class="label">Neutral</text>
<rect x="770" y="28" width="12" height="12" fill="#3d6fb6"/>
<text x="788" y="38" class="axis">Avg daily account PnL</text>
<rect x="770" y="48" width="12" height="12" fill="#c43c39"/>
<text x="788" y="58" class="axis">5th pct daily PnL</text>
</svg>